/* XPM */
static char *_78393e33f7b4135b1c46bae16b15234uWBz9ZVPkKbFy4jx[] = {
/* columns rows colors chars-per-pixel */
"168 72 8 1 ",
"  c None",
". c black",
"X c #BE6400",
"o c #777777",
"O c #EF9600",
"+ c #E7DBCA",
"@ c #E7E4DF",
"# c white",
/* pixels */
"                                                                                                                                                                        ",
"                                                                                                                                                                        ",
"                                                                                                                                                                        ",
"                                                                                                                                                                        ",
"                                                    @@@@@@+                                                                                                             ",
"                                                    @@@@@@+                                                                                                             ",
"                                                   O@@o#@@++               @@@@@@+                                         @@@@@@+                                      ",
"                    +                       +     OO@@.o@@++       +       @@@@@@+          +                       +      @@@@@@+          +                       +   ",
"                   ++                      ++       @@@@@#++      ++      O@@o#@@++        ++      @@@@@@++        ++     O@@o#@@++        ++      @@@@@@++        ++   ",
"                   +++                     +++      @@@@##++      +++    OO@@.o@@++++      +++     @@@@@@++++      +++   OO@@.o@@++++      +++     @@@@@@++++      +++  ",
"        +++++++++++##++             +++++++##++       ++####++++++##++     @@@@@#####++++++##++   O@@o#@@####++++++##++    @@@@@#####++++++##++   O@@o#@@####++++++##++ ",
"       ++++++++++++##++            ++++++++##++       ++####++++++##++     @@@@######++++++##++  OO@@.o@@####++++++##++    @@@@######++++++##++  OO@@.o@@####++++++##++ ",
"   @@@@@#########++##++          ++######++##++       ++########++##++         ++########++##++    @@@@##########++##++        ++########++##++    @@@@@#########++##++ ",
"   @@@@@@########++##++         +++######++##++       ++########++##++         ++########++##++    @@@@##########++##++        ++########++##++    @@@@##########++##++ ",
"   @@o#@@####++++####++        ++####++++####++       ++####++++####++         ++####++++####++        ++####++++####++        ++####++++####++        ++####++++####++ ",
"   @@.o@@####++++####++        ++####++++####++       ++####++++####++         ++####++++####++        ++####++++####++        ++####++++####++        ++####++++####++ ",
"   @@@@++++########++      @@@@@@##########++           ++########++             ++########++            ++########++            ++########++            ++########++   ",
"   @@@@++++########++      @@@@@@##########++           ++########++             ++########++            ++########++            ++########++            ++########++   ",
"   OO      ++++++++        @@o#@@++++++++++               ++++++++                 ++++++++                ++++++++                ++++++++                ++++++++     ",
"   OO      ++++++++        @@.o@@++++++++++               ++++++++                 ++++++++                ++++++++                ++++++++                ++++++++     ",
"             OOXX          @@@@++    OOXX                   OOXX                     OOXX                    OOXX                    XXOO                    XXOO       ",
"             OOXX          @@@@++    OOXX                   OOXX                     OOXX                    OOXX                    XXOO                    XXOO       ",
"           OOOOXX          OO      OOOOXX                 OOOOXX                   OO    XX                  OOXX                  XX    OO                  XXOO       ",
"           OOOOXX          OO      OOOOXX                 OOOOXX                   OO    XX                  OOXX                  XX    OO                  XXOO       ",
"                                                                                                                                                                        ",
"                                                                                                                                                                        ",
"                                                                                                                                                                        ",
"                                                                                                                                                                        ",
"                                                         @@@@@@                                                                                                         ",
"                                                         @@@@@@                                                                                                         ",
"                                                         o#@@o#                  @@@@@@                                          @@@@@@                                 ",
"                                                         .o@@.o                  @@@@@@                                          @@@@@@                                 ",
"           ++                      ++                    @@OO@@                  o#@@o#                  @@@@@@                  o#@@o#                  @@@@@@         ",
"           ++                      ++                    @@OO@@                  .o@@.o                  @@@@@@                  .o@@.o                  @@@@@@         ",
"       ++++##++++              ++++##++++              ++++##++++              ++@@OO@@++              ++o#@@o#++              ++@@OO@@++              ++o#@@o#++       ",
"       ++++##++++              ++++##++++              ++++##++++              ++@@OO@@++              ++.o@@.o++              ++@@OO@@++              ++.o@@.o++       ",
"     ++##@@@@@@##++          ++##++++++##++          ++##++##++##++          ++##++##++##++          ++##@@OO@@##++          ++##++##++##++          ++##@@OO@@##++     ",
"     ++##@@@@@@##++          ++##++++++##++          ++##++##++##++          ++##++##++##++          ++##@@OO@@##++          ++##++##++##++          ++##@@OO@@##++     ",
"     ++##o#@@o###++          ++##++++++##++          ++##++##++##++          ++##++##++##++          ++##++##++##++          ++##++##++##++          ++##++##++##++     ",
"     ++##.o@@.o##++          ++##++++++##++          ++##++##++##++          ++##++##++##++          ++##++##++##++          ++##++##++##++          ++##++##++##++     ",
"       ++@@@@@@++              ++@@@@@@++              ++######++              ++######++              ++######++              ++######++              ++######++       ",
"       ++@@@@@@++              ++@@@@@@++              ++######++              ++######++              ++######++              ++######++              ++######++       ",
"         ++OO++                  o#@@o#                  ++++++                  ++++++                  ++++++                  ++++++                  ++++++         ",
"         ++OO++                  .o@@.o                  ++++++                  ++++++                  ++++++                  ++++++                  ++++++         ",
"         XX  XX                  @@@@@@                  XX  XX                  XX  OO                  OO  XX                  OO  XX                  XX  OO         ",
"         XX  XX                  @@@@@@                  XX  XX                  XX  OO                  OO  XX                  OO  XX                  XX  OO         ",
"         OO  OO                  XXOOXX                  OO  OO                  OO                      OO  XX                      OO                  XX  OO         ",
"         OO  OO                  XXOOXX                  OO  OO                  OO                      OO  XX                      OO                  XX  OO         ",
"                                                                                                                                                                        ",
"                                                                                                                                                                        ",
"                                                                                                                                                                        ",
"                                                                                                                                                                        ",
"                                                         ++##++                                                                                                         ",
"                                                         ++##++                                                                                                         ",
"                                                         ++##++                  ++##++                                          ++##++                                 ",
"                                                         ++##++                  ++##++                                          ++##++                                 ",
"         ++++++                   ++++                   ++++++                  ++++++                  ++++++                  ++++++                  ++++++         ",
"         ++++++                  ++++++                  ++++++                  ++++++                  ++++++                  ++++++                  ++++++         ",
"       ++++##++++              ++++##++++              ++++##++++              ++++##++++              ++++##++++              ++++##++++              ++++##++++       ",
"       ++++##++++              ++++##++++              ++++##++++              ++++##++++              ++++##++++              ++++##++++              ++++##++++       ",
"     ++##++##++##++          ++##++##++##++          ++##++##++##++          ++##++##++##++          ++##++##++##++          ++##++##++##++          ++##++##++##++     ",
"     ++##++##++##++          ++##++##++##++          ++##++##++##++          ++##++##++##++          ++##++##++##++          ++##++##++##++          ++##++##++##++     ",
"     ++++######++++          ++++######++++          ++++######++++          ++++######++++          ++++######++++          ++++######++++          ++++######++++     ",
"     ++++######++++          ++++######++++          ++++######++++          ++++######++++          ++++######++++          ++++######++++          ++++######++++     ",
"       ++######++              ++######++              ++######++              ++######++              ++######++              ++######++              ++######++       ",
"       ++######++              ++######++              ++######++              ++######++              ++######++              ++######++              ++######++       ",
"         ++++++                  ++++++                  ++++++                  ++++++                  ++++++                  ++++++                  ++++++         ",
"         ++++++                  ++++++                  ++++++                  ++++++                  ++++++                  ++++++                  ++++++         ",
"         XX  XX                  XX@@XX                  XX  XX                  XX  OO                  OO  XX                  OO  XX                  XX  OO         ",
"         XX  XX                  XX@@XX                  XX  XX                  XX  OO                  OO  XX                  OO  XX                  XX  OO         ",
"         OO  OO                  OOXXOO                  OO  OO                  OO                      OO  XX                      OO                  XX  OO         ",
"         OO  OO                  OOXXOO                  OO  OO                  OO                      OO  XX                      OO                  XX  OO         "
};
